<mxfile host="app.diagrams.net" modified="2021-08-04T09:58:03.085Z" agent="5.0 (X11; Linux x86_64) AppleWebKit/537.36 (KHTML, like Gecko) Chrome/91.0.4472.77 Safari/537.36" etag="TckpN_I6naMyp6gX7d4s" version="14.2.3" type="github">
  <diagram id="Q_xmtvUPQ6Yv9zy_9RRj" name="Page-1">
    <mxGraphModel dx="1446" dy="602" grid="1" gridSize="10" guides="1" tooltips="1" connect="1" arrows="1" fold="1" page="1" pageScale="1" pageWidth="850" pageHeight="1100" math="0" shadow="0">
      <root>
        <mxCell id="0" />
        <mxCell id="1" parent="0" />
      </root>
    </mxGraphModel>
  </diagram>
</mxfile>
